{
	"asset": {
		"version": "2.0",
		"generator": "wow.export v0.1.65 win-x64 [d1c6caee-c9d0-469b-8ef3-69abea558672]"
	},
	"nodes": [
		{
			"name": "shield_2h_outlandraid_d_03",
			"children": [
				1,
				4
			]
		},
		{
			"name": "shield_2h_outlandraid_d_03",
			"children": [
				2
			]
		},
		{
			"name": "bone_0_p",
			"translation": [
				0.21821729838848114,
				-0.0005179076688364148,
				-0.015835203230381012
			],
			"children": [
				3
			]
		},
		{
			"name": "bone_0"
		},
		{
			"name": "shield_2h_outlandraid_d_03_Geoset0",
			"mesh": 0,
			"skin": 0
		}
	],
	"scenes": [
		{
			"name": "shield_2h_outlandraid_d_03_Scene",
			"nodes": [
				0
			]
		}
	],
	"buffers": [
		{
			"uri": "shield_2h_outlandraid_d_03.bin",
			"byteLength": 12112
		}
	],
	"bufferViews": [
		{
			"buffer": 0,
			"byteLength": 2856,
			"byteOffset": 0,
			"target": 34962
		},
		{
			"buffer": 0,
			"byteLength": 2856,
			"byteOffset": 2856,
			"target": 34962
		},
		{
			"buffer": 0,
			"byteLength": 952,
			"byteOffset": 5712,
			"target": 34962
		},
		{
			"buffer": 0,
			"byteLength": 952,
			"byteOffset": 6664,
			"target": 34962
		},
		{
			"buffer": 0,
			"byteLength": 64,
			"byteOffset": 7616
		},
		{
			"buffer": 0,
			"byteLength": 1904,
			"byteOffset": 7680,
			"target": 34962
		},
		{
			"buffer": 0,
			"byteLength": 1904,
			"byteOffset": 9584,
			"target": 34962
		},
		{
			"buffer": 0,
			"byteLength": 624,
			"byteOffset": 11488,
			"target": 34963
		}
	],
	"accessors": [
		{
			"name": "POSITION",
			"bufferView": 0,
			"byteOffset": 0,
			"componentType": 5126,
			"count": 238,
			"type": "VEC3",
			"min": [
				-0.521064817905426,
				-0.4717662036418915,
				-0.1455516815185547
			],
			"max": [
				0.5905383229255676,
				0.51533043384552,
				0.06514342129230499
			]
		},
		{
			"name": "NORMAL",
			"bufferView": 1,
			"byteOffset": 0,
			"componentType": 5126,
			"count": 238,
			"type": "VEC3",
			"min": [
				-0.9217928647994995,
				-0.7762603163719177,
				-0.9971135258674622
			],
			"max": [
				0.759920060634613,
				0.8480954170227051,
				0.9973637461662292
			]
		},
		{
			"name": "JOINTS_0",
			"byteOffset": 0,
			"componentType": 5121,
			"count": 238,
			"type": "VEC4",
			"bufferView": 2,
			"min": [
				0,
				0,
				0,
				0
			],
			"max": [
				0,
				0,
				0,
				0
			]
		},
		{
			"name": "WEIGHTS_0",
			"byteOffset": 0,
			"componentType": 5121,
			"count": 238,
			"normalized": true,
			"type": "VEC4",
			"bufferView": 3,
			"min": [
				255,
				0,
				0,
				0
			],
			"max": [
				255,
				0,
				0,
				0
			]
		},
		{
			"name": "INV_BIND_MATRICES",
			"byteOffset": 0,
			"componentType": 5126,
			"count": 1,
			"type": "MAT4",
			"bufferView": 4,
			"min": [
				1,
				0,
				0,
				0,
				0,
				1,
				0,
				0,
				0,
				0,
				1,
				0,
				-0.21821729838848114,
				0.0005179076688364148,
				0.015835203230381012,
				1
			],
			"max": [
				1,
				0,
				0,
				0,
				0,
				1,
				0,
				0,
				0,
				0,
				1,
				0,
				-0.21821729838848114,
				0.0005179076688364148,
				0.015835203230381012,
				1
			]
		},
		{
			"name": "TEXCOORD_0",
			"bufferView": 5,
			"byteOffset": 0,
			"componentType": 5126,
			"count": 238,
			"type": "VEC2",
			"min": [
				0.0022627459838986397,
				0.0034713149070739746
			],
			"max": [
				0.9880975484848022,
				0.9985448122024536
			]
		},
		{
			"name": "TEXCOORD_1",
			"bufferView": 6,
			"byteOffset": 0,
			"componentType": 5126,
			"count": 238,
			"type": "VEC2",
			"min": [
				0,
				0
			],
			"max": [
				0,
				0
			]
		},
		{
			"bufferView": 7,
			"byteOffset": 0,
			"componentType": 5121,
			"count": 624,
			"type": "SCALAR"
		}
	],
	"meshes": [
		{
			"primitives": [
				{
					"attributes": {
						"POSITION": 0,
						"NORMAL": 1,
						"JOINTS_0": 2,
						"WEIGHTS_0": 3,
						"TEXCOORD_0": 5,
						"TEXCOORD_1": 6
					},
					"indices": 7,
					"mode": 4,
					"material": 0
				}
			]
		}
	],
	"scene": 0,
	"skins": [
		{
			"name": "shield_2h_outlandraid_d_03_Armature",
			"joints": [
				3
			],
			"inverseBindMatrices": 4,
			"skeleton": 0
		}
	],
	"animations": [
		{
			"samplers": [],
			"channels": [],
			"name": "Stand (ID 0 variation 0)"
		}
	],
	"images": [
		{
			"uri": "shield_2h_outlandraid_d_03.png"
		},
		{
			"uri": "..\\weapon\\armorreflect_rainbow.png"
		}
	],
	"textures": [
		{
			"source": 0
		},
		{
			"source": 1
		}
	],
	"materials": [
		{
			"name": "shield_2h_outlandraid_d_03",
			"emissiveFactor": [
				0,
				0,
				0
			],
			"pbrMetallicRoughness": {
				"baseColorTexture": {
					"index": 0
				},
				"metallicFactor": 0
			}
		},
		{
			"name": "armorreflect_rainbow",
			"emissiveFactor": [
				0,
				0,
				0
			],
			"pbrMetallicRoughness": {
				"baseColorTexture": {
					"index": 1
				},
				"metallicFactor": 0
			}
		}
	]
}