{
	"asset": {
		"version": "2.0",
		"generator": "wow.export v0.1.65 win-x64 [d1c6caee-c9d0-469b-8ef3-69abea558672]"
	},
	"nodes": [
		{
			"name": "jewelcraft_gemcut_01",
			"children": [
				1,
				4
			]
		},
		{
			"name": "jewelcraft_gemcut_01",
			"children": [
				2
			]
		},
		{
			"name": "bone_0_p",
			"translation": [
				-0.001219819183461368,
				0.2527713477611542,
				0.0013158586807549
			],
			"children": [
				3
			]
		},
		{
			"name": "bone_0"
		},
		{
			"name": "jewelcraft_gemcut_01_Geoset0",
			"mesh": 0,
			"skin": 0
		}
	],
	"scenes": [
		{
			"name": "jewelcraft_gemcut_01_Scene",
			"nodes": [
				0
			]
		}
	],
	"buffers": [
		{
			"uri": "jewelcraft_gemcut_01.bin",
			"byteLength": 2092
		}
	],
	"bufferViews": [
		{
			"buffer": 0,
			"byteLength": 480,
			"byteOffset": 0,
			"target": 34962
		},
		{
			"buffer": 0,
			"byteLength": 480,
			"byteOffset": 480,
			"target": 34962
		},
		{
			"buffer": 0,
			"byteLength": 160,
			"byteOffset": 960,
			"target": 34962
		},
		{
			"buffer": 0,
			"byteLength": 160,
			"byteOffset": 1120,
			"target": 34962
		},
		{
			"buffer": 0,
			"byteLength": 64,
			"byteOffset": 1280
		},
		{
			"buffer": 0,
			"byteLength": 320,
			"byteOffset": 1344,
			"target": 34962
		},
		{
			"buffer": 0,
			"byteLength": 320,
			"byteOffset": 1664,
			"target": 34962
		},
		{
			"buffer": 0,
			"byteLength": 108,
			"byteOffset": 1984,
			"target": 34963
		}
	],
	"accessors": [
		{
			"name": "POSITION",
			"bufferView": 0,
			"byteOffset": 0,
			"componentType": 5126,
			"count": 40,
			"type": "VEC3",
			"min": [
				-0.2995525300502777,
				-0.0014239819720387459,
				-0.36965686082839966
			],
			"max": [
				0.29711297154426575,
				0.6229947209358215,
				0.3722885847091675
			]
		},
		{
			"name": "NORMAL",
			"bufferView": 1,
			"byteOffset": 0,
			"componentType": 5126,
			"count": 40,
			"type": "VEC3",
			"min": [
				-0.9956204295158386,
				-0.891398549079895,
				-0.9063077569007874
			],
			"max": [
				0.9956204295158386,
				0.8612790107727051,
				0.9063077569007874
			]
		},
		{
			"name": "JOINTS_0",
			"byteOffset": 0,
			"componentType": 5121,
			"count": 40,
			"type": "VEC4",
			"bufferView": 2,
			"min": [
				0,
				0,
				0,
				0
			],
			"max": [
				0,
				0,
				0,
				0
			]
		},
		{
			"name": "WEIGHTS_0",
			"byteOffset": 0,
			"componentType": 5121,
			"count": 40,
			"normalized": true,
			"type": "VEC4",
			"bufferView": 3,
			"min": [
				255,
				0,
				0,
				0
			],
			"max": [
				255,
				0,
				0,
				0
			]
		},
		{
			"name": "INV_BIND_MATRICES",
			"byteOffset": 0,
			"componentType": 5126,
			"count": 1,
			"type": "MAT4",
			"bufferView": 4,
			"min": [
				1,
				0,
				0,
				0,
				0,
				1,
				0,
				0,
				0,
				0,
				1,
				0,
				0.001219819183461368,
				-0.2527713477611542,
				-0.0013158586807549,
				1
			],
			"max": [
				1,
				0,
				0,
				0,
				0,
				1,
				0,
				0,
				0,
				0,
				1,
				0,
				0.001219819183461368,
				-0.2527713477611542,
				-0.0013158586807549,
				1
			]
		},
		{
			"name": "TEXCOORD_0",
			"bufferView": 5,
			"byteOffset": 0,
			"componentType": 5126,
			"count": 40,
			"type": "VEC2",
			"min": [
				0.007713895756751299,
				0.0004994869232177734
			],
			"max": [
				0.992285966873169,
				0.9927536249160767
			]
		},
		{
			"name": "TEXCOORD_1",
			"bufferView": 6,
			"byteOffset": 0,
			"componentType": 5126,
			"count": 40,
			"type": "VEC2",
			"min": [
				0,
				0
			],
			"max": [
				0,
				0
			]
		},
		{
			"bufferView": 7,
			"byteOffset": 0,
			"componentType": 5121,
			"count": 108,
			"type": "SCALAR"
		}
	],
	"meshes": [
		{
			"primitives": [
				{
					"attributes": {
						"POSITION": 0,
						"NORMAL": 1,
						"JOINTS_0": 2,
						"WEIGHTS_0": 3,
						"TEXCOORD_0": 5,
						"TEXCOORD_1": 6
					},
					"indices": 7,
					"mode": 4,
					"material": 0
				}
			]
		}
	],
	"scene": 0,
	"skins": [
		{
			"name": "jewelcraft_gemcut_01_Armature",
			"joints": [
				3
			],
			"inverseBindMatrices": 4,
			"skeleton": 0
		}
	],
	"animations": [
		{
			"samplers": [],
			"channels": [],
			"name": "Spawn (ID 145 variation 0)"
		},
		{
			"samplers": [],
			"channels": [],
			"name": "Stand (ID 0 variation 0)"
		},
		{
			"samplers": [],
			"channels": [],
			"name": "Custom0 (ID 153 variation 0)"
		},
		{
			"samplers": [],
			"channels": [],
			"name": "Despawn (ID 157 variation 0)"
		}
	],
	"images": [
		{
			"uri": "..\\..\\..\\..\\..\\goober\\g_jewelblack.png"
		},
		{
			"uri": "..\\..\\..\\..\\..\\..\\item\\objectcomponents\\shield\\armorreflect4.png"
		}
	],
	"textures": [
		{
			"source": 0
		},
		{
			"source": 1
		}
	],
	"materials": [
		{
			"name": "g_jewelblack",
			"emissiveFactor": [
				0,
				0,
				0
			],
			"pbrMetallicRoughness": {
				"baseColorTexture": {
					"index": 0
				},
				"metallicFactor": 0
			}
		},
		{
			"name": "armorreflect4",
			"emissiveFactor": [
				0,
				0,
				0
			],
			"pbrMetallicRoughness": {
				"baseColorTexture": {
					"index": 1
				},
				"metallicFactor": 0
			}
		}
	]
}