{
	"asset": {
		"version": "2.0",
		"generator": "wow.export v0.1.65 win-x64 [d1c6caee-c9d0-469b-8ef3-69abea558672]"
	},
	"nodes": [
		{
			"name": "mace_1h_flanged_b_02green",
			"children": [
				1,
				14
			]
		},
		{
			"name": "mace_1h_flanged_b_02green",
			"children": [
				2,
				4,
				6,
				8,
				10,
				12
			]
		},
		{
			"name": "bone_0_p",
			"translation": [
				0.21191883087158203,
				0.0064718094654381275,
				0.021812399849295616
			],
			"children": [
				3
			]
		},
		{
			"name": "bone_0"
		},
		{
			"name": "bone_1_p",
			"translation": [
				0.433626651763916,
				0.023146459832787514,
				0.0043033212423324585
			],
			"children": [
				5
			]
		},
		{
			"name": "bone_1"
		},
		{
			"name": "bone_2_p",
			"translation": [
				0.525768518447876,
				-0.03932236507534981,
				0.004303325433284044
			],
			"children": [
				7
			]
		},
		{
			"name": "bone_2"
		},
		{
			"name": "bone_3_p",
			"translation": [
				0.5694968104362488,
				-0.14497698843479156,
				0
			],
			"children": [
				9
			]
		},
		{
			"name": "bone_3"
		},
		{
			"name": "bone_4_p",
			"translation": [
				0.6604750156402588,
				-0.19468650221824646,
				0
			],
			"children": [
				11
			]
		},
		{
			"name": "bone_4"
		},
		{
			"name": "bone_5_p",
			"translation": [
				0.3998337388038635,
				0.0732351765036583,
				0
			],
			"children": [
				13
			]
		},
		{
			"name": "bone_5"
		},
		{
			"name": "mace_1h_flanged_b_02green_Geoset0",
			"mesh": 0,
			"skin": 0
		}
	],
	"scenes": [
		{
			"name": "mace_1h_flanged_b_02green_Scene",
			"nodes": [
				0
			]
		}
	],
	"buffers": [
		{
			"uri": "mace_1h_flanged_b_02green.bin",
			"byteLength": 6366
		},
		{
			"uri": "mace_1h_flanged_b_02green_anim0-0.bin",
			"byteLength": 140
		}
	],
	"bufferViews": [
		{
			"buffer": 0,
			"byteLength": 1380,
			"byteOffset": 0,
			"target": 34962
		},
		{
			"buffer": 0,
			"byteLength": 1380,
			"byteOffset": 1380,
			"target": 34962
		},
		{
			"buffer": 0,
			"byteLength": 460,
			"byteOffset": 2760,
			"target": 34962
		},
		{
			"buffer": 0,
			"byteLength": 460,
			"byteOffset": 3220,
			"target": 34962
		},
		{
			"buffer": 0,
			"byteLength": 384,
			"byteOffset": 3680
		},
		{
			"buffer": 1,
			"byteLength": 4,
			"byteOffset": 0,
			"name": "TRANS_TIMESTAMPS_1_0"
		},
		{
			"buffer": 1,
			"byteLength": 12,
			"byteOffset": 4,
			"name": "TRANS_VALUES_1_0"
		},
		{
			"buffer": 1,
			"byteLength": 4,
			"byteOffset": 16,
			"name": "ROT_TIMESTAMPS_1_0"
		},
		{
			"buffer": 1,
			"byteLength": 16,
			"byteOffset": 20,
			"name": "ROT_VALUES_1_0"
		},
		{
			"buffer": 1,
			"byteLength": 4,
			"byteOffset": 36,
			"name": "SCALE_TIMESTAMPS_1_0"
		},
		{
			"buffer": 1,
			"byteLength": 12,
			"byteOffset": 40,
			"name": "SCALE_VALUES_1_0"
		},
		{
			"buffer": 1,
			"byteLength": 4,
			"byteOffset": 52,
			"name": "TRANS_TIMESTAMPS_2_0"
		},
		{
			"buffer": 1,
			"byteLength": 12,
			"byteOffset": 56,
			"name": "TRANS_VALUES_2_0"
		},
		{
			"buffer": 1,
			"byteLength": 4,
			"byteOffset": 68,
			"name": "ROT_TIMESTAMPS_2_0"
		},
		{
			"buffer": 1,
			"byteLength": 16,
			"byteOffset": 72,
			"name": "ROT_VALUES_2_0"
		},
		{
			"buffer": 1,
			"byteLength": 4,
			"byteOffset": 88,
			"name": "SCALE_TIMESTAMPS_2_0"
		},
		{
			"buffer": 1,
			"byteLength": 12,
			"byteOffset": 92,
			"name": "SCALE_VALUES_2_0"
		},
		{
			"buffer": 1,
			"byteLength": 4,
			"byteOffset": 104,
			"name": "ROT_TIMESTAMPS_3_0"
		},
		{
			"buffer": 1,
			"byteLength": 16,
			"byteOffset": 108,
			"name": "ROT_VALUES_3_0"
		},
		{
			"buffer": 1,
			"byteLength": 4,
			"byteOffset": 124,
			"name": "SCALE_TIMESTAMPS_3_0"
		},
		{
			"buffer": 1,
			"byteLength": 12,
			"byteOffset": 128,
			"name": "SCALE_VALUES_3_0"
		},
		{
			"buffer": 0,
			"byteLength": 920,
			"byteOffset": 4064,
			"target": 34962
		},
		{
			"buffer": 0,
			"byteLength": 920,
			"byteOffset": 4984,
			"target": 34962
		},
		{
			"buffer": 0,
			"byteLength": 462,
			"byteOffset": 5904,
			"target": 34963
		}
	],
	"accessors": [
		{
			"name": "POSITION",
			"bufferView": 0,
			"byteOffset": 0,
			"componentType": 5126,
			"count": 115,
			"type": "VEC3",
			"min": [
				-0.2859579622745514,
				-0.28643956780433655,
				-0.17483487725257874
			],
			"max": [
				0.7117556929588318,
				0.16528008878231049,
				0.17527921497821808
			]
		},
		{
			"name": "NORMAL",
			"bufferView": 1,
			"byteOffset": 0,
			"componentType": 5126,
			"count": 115,
			"type": "VEC3",
			"min": [
				-0.9989182353019714,
				-0.9979509115219116,
				-0.9960171580314636
			],
			"max": [
				0.9908146858215332,
				0.9922631978988647,
				0.9960171580314636
			]
		},
		{
			"name": "JOINTS_0",
			"byteOffset": 0,
			"componentType": 5121,
			"count": 115,
			"type": "VEC4",
			"bufferView": 2,
			"min": [
				0,
				0,
				0,
				0
			],
			"max": [
				0,
				0,
				0,
				0
			]
		},
		{
			"name": "WEIGHTS_0",
			"byteOffset": 0,
			"componentType": 5121,
			"count": 115,
			"normalized": true,
			"type": "VEC4",
			"bufferView": 3,
			"min": [
				255,
				0,
				0,
				0
			],
			"max": [
				255,
				0,
				0,
				0
			]
		},
		{
			"name": "INV_BIND_MATRICES",
			"byteOffset": 0,
			"componentType": 5126,
			"count": 6,
			"type": "MAT4",
			"bufferView": 4,
			"min": [
				1,
				0,
				0,
				0,
				0,
				1,
				0,
				0,
				0,
				0,
				1,
				0,
				-0.6604750156402588,
				-0.0732351765036583,
				-0.021812399849295616,
				1
			],
			"max": [
				1,
				0,
				0,
				0,
				0,
				1,
				0,
				0,
				0,
				0,
				1,
				0,
				-0.21191883087158203,
				0.19468650221824646,
				0,
				1
			]
		},
		{
			"name": "TRANS_TIMESTAMPS_1_0",
			"bufferView": 5,
			"byteOffset": 0,
			"type": "SCALAR",
			"componentType": 5126,
			"min": [
				3
			],
			"max": [
				3
			],
			"count": 1
		},
		{
			"name": "TRANS_VALUES_1_0",
			"bufferView": 6,
			"byteOffset": 0,
			"type": "VEC3",
			"componentType": 5126,
			"min": [
				-0.03747786581516266,
				0,
				0
			],
			"max": [
				-0.03747786581516266,
				0,
				0
			],
			"count": 1
		},
		{
			"name": "ROT_TIMESTAMPS_1_0",
			"bufferView": 7,
			"byteOffset": 0,
			"type": "SCALAR",
			"componentType": 5126,
			"min": [
				3
			],
			"max": [
				3
			],
			"count": 1
		},
		{
			"name": "ROT_VALUES_1_0",
			"bufferView": 8,
			"byteOffset": 0,
			"type": "VEC4",
			"componentType": 5126,
			"min": [
				0,
				0,
				-0.2164372692037721,
				0.9763176366466262
			],
			"max": [
				0,
				0,
				-0.2164372692037721,
				0.9763176366466262
			],
			"count": 1
		},
		{
			"name": "SCALE_TIMESTAMPS_1_0",
			"bufferView": 9,
			"byteOffset": 0,
			"type": "SCALAR",
			"componentType": 5126,
			"min": [
				3
			],
			"max": [
				3
			],
			"count": 1
		},
		{
			"name": "SCALE_VALUES_1_0",
			"bufferView": 10,
			"byteOffset": 0,
			"type": "VEC3",
			"componentType": 5126,
			"min": [
				1.7999999523162842,
				1.7999999523162842,
				1.7999999523162842
			],
			"max": [
				1.7999999523162842,
				1.7999999523162842,
				1.7999999523162842
			],
			"count": 1
		},
		{
			"name": "TRANS_TIMESTAMPS_2_0",
			"bufferView": 11,
			"byteOffset": 0,
			"type": "SCALAR",
			"componentType": 5126,
			"min": [
				3
			],
			"max": [
				3
			],
			"count": 1
		},
		{
			"name": "TRANS_VALUES_2_0",
			"bufferView": 12,
			"byteOffset": 0,
			"type": "VEC3",
			"componentType": 5126,
			"min": [
				-0.03747786581516266,
				0,
				0
			],
			"max": [
				-0.03747786581516266,
				0,
				0
			],
			"count": 1
		},
		{
			"name": "ROT_TIMESTAMPS_2_0",
			"bufferView": 13,
			"byteOffset": 0,
			"type": "SCALAR",
			"componentType": 5126,
			"min": [
				3
			],
			"max": [
				3
			],
			"count": 1
		},
		{
			"name": "ROT_VALUES_2_0",
			"bufferView": 14,
			"byteOffset": 0,
			"type": "VEC4",
			"componentType": 5126,
			"min": [
				0,
				0,
				-0.2164372692037721,
				0.9763176366466262
			],
			"max": [
				0,
				0,
				-0.2164372692037721,
				0.9763176366466262
			],
			"count": 1
		},
		{
			"name": "SCALE_TIMESTAMPS_2_0",
			"bufferView": 15,
			"byteOffset": 0,
			"type": "SCALAR",
			"componentType": 5126,
			"min": [
				3
			],
			"max": [
				3
			],
			"count": 1
		},
		{
			"name": "SCALE_VALUES_2_0",
			"bufferView": 16,
			"byteOffset": 0,
			"type": "VEC3",
			"componentType": 5126,
			"min": [
				1.7999999523162842,
				1.7999999523162842,
				1.7999999523162842
			],
			"max": [
				1.7999999523162842,
				1.7999999523162842,
				1.7999999523162842
			],
			"count": 1
		},
		{
			"name": "ROT_TIMESTAMPS_3_0",
			"bufferView": 17,
			"byteOffset": 0,
			"type": "SCALAR",
			"componentType": 5126,
			"min": [
				3
			],
			"max": [
				3
			],
			"count": 1
		},
		{
			"name": "ROT_VALUES_3_0",
			"bufferView": 18,
			"byteOffset": 0,
			"type": "VEC4",
			"componentType": 5126,
			"min": [
				0,
				0,
				-0.7071138645588549,
				0.7071138645588549
			],
			"max": [
				0,
				0,
				-0.7071138645588549,
				0.7071138645588549
			],
			"count": 1
		},
		{
			"name": "SCALE_TIMESTAMPS_3_0",
			"bufferView": 19,
			"byteOffset": 0,
			"type": "SCALAR",
			"componentType": 5126,
			"min": [
				3
			],
			"max": [
				3
			],
			"count": 1
		},
		{
			"name": "SCALE_VALUES_3_0",
			"bufferView": 20,
			"byteOffset": 0,
			"type": "VEC3",
			"componentType": 5126,
			"min": [
				1.7999999523162842,
				1.7999999523162842,
				1.7999999523162842
			],
			"max": [
				1.7999999523162842,
				1.7999999523162842,
				1.7999999523162842
			],
			"count": 1
		},
		{
			"name": "TEXCOORD_0",
			"bufferView": 21,
			"byteOffset": 0,
			"componentType": 5126,
			"count": 115,
			"type": "VEC2",
			"min": [
				0.01271906029433012,
				0.00926971435546875
			],
			"max": [
				0.9913146495819092,
				0.998610258102417
			]
		},
		{
			"name": "TEXCOORD_1",
			"bufferView": 22,
			"byteOffset": 0,
			"componentType": 5126,
			"count": 115,
			"type": "VEC2",
			"min": [
				0,
				0
			],
			"max": [
				0,
				0
			]
		},
		{
			"bufferView": 23,
			"byteOffset": 0,
			"componentType": 5121,
			"count": 462,
			"type": "SCALAR"
		}
	],
	"meshes": [
		{
			"primitives": [
				{
					"attributes": {
						"POSITION": 0,
						"NORMAL": 1,
						"JOINTS_0": 2,
						"WEIGHTS_0": 3,
						"TEXCOORD_0": 21,
						"TEXCOORD_1": 22
					},
					"indices": 23,
					"mode": 4,
					"material": 0
				}
			]
		}
	],
	"scene": 0,
	"skins": [
		{
			"name": "mace_1h_flanged_b_02green_Armature",
			"joints": [
				3,
				5,
				7,
				9,
				11,
				13
			],
			"inverseBindMatrices": 4,
			"skeleton": 0
		}
	],
	"animations": [
		{
			"samplers": [
				{
					"input": 5,
					"interpolation": "STEP",
					"output": 6
				},
				{
					"input": 7,
					"interpolation": "STEP",
					"output": 8
				},
				{
					"input": 9,
					"interpolation": "STEP",
					"output": 10
				},
				{
					"input": 11,
					"interpolation": "STEP",
					"output": 12
				},
				{
					"input": 13,
					"interpolation": "STEP",
					"output": 14
				},
				{
					"input": 15,
					"interpolation": "STEP",
					"output": 16
				},
				{
					"input": 17,
					"interpolation": "STEP",
					"output": 18
				},
				{
					"input": 19,
					"interpolation": "STEP",
					"output": 20
				}
			],
			"channels": [
				{
					"sampler": 0,
					"target": {
						"node": 5,
						"path": "translation"
					}
				},
				{
					"sampler": 1,
					"target": {
						"node": 5,
						"path": "rotation"
					}
				},
				{
					"sampler": 2,
					"target": {
						"node": 5,
						"path": "scale"
					}
				},
				{
					"sampler": 3,
					"target": {
						"node": 7,
						"path": "translation"
					}
				},
				{
					"sampler": 4,
					"target": {
						"node": 7,
						"path": "rotation"
					}
				},
				{
					"sampler": 5,
					"target": {
						"node": 7,
						"path": "scale"
					}
				},
				{
					"sampler": 6,
					"target": {
						"node": 9,
						"path": "rotation"
					}
				},
				{
					"sampler": 7,
					"target": {
						"node": 9,
						"path": "scale"
					}
				}
			],
			"name": "Stand (ID 0 variation 0)"
		}
	],
	"images": [
		{
			"uri": "mace_1h_flanged_b_02green.png"
		}
	],
	"textures": [
		{
			"source": 0
		}
	],
	"materials": [
		{
			"name": "mace_1h_flanged_b_02green",
			"emissiveFactor": [
				0,
				0,
				0
			],
			"pbrMetallicRoughness": {
				"baseColorTexture": {
					"index": 0
				},
				"metallicFactor": 0
			}
		}
	]
}