{
	"asset": {
		"version": "2.0",
		"generator": "wow.export v0.1.65 win-x64 [d1c6caee-c9d0-469b-8ef3-69abea558672]"
	},
	"nodes": [
		{
			"name": "hellfire_impact_caster_state",
			"children": [
				1,
				8,
				9
			]
		},
		{
			"name": "hellfire_impact_caster_state",
			"children": [
				2,
				4,
				6
			]
		},
		{
			"name": "bone_Plane02_p",
			"translation": [
				-0.005144966300576925,
				0.01923004724085331,
				-0.006903370376676321
			],
			"children": [
				3
			]
		},
		{
			"name": "bone_Plane02"
		},
		{
			"name": "bone_Plane03_p",
			"translation": [
				-0.005144966300576925,
				0.01923004724085331,
				-0.006903370376676321
			],
			"children": [
				5
			]
		},
		{
			"name": "bone_Plane03"
		},
		{
			"name": "bone_2_p",
			"translation": [
				-0.057436127215623856,
				0.3893483579158783,
				-0.10817527770996094
			],
			"children": [
				7
			]
		},
		{
			"name": "bone_2"
		},
		{
			"name": "hellfire_impact_caster_state_Geoset0",
			"mesh": 0,
			"skin": 0
		},
		{
			"name": "hellfire_impact_caster_state_Geoset1",
			"mesh": 1,
			"skin": 0
		}
	],
	"scenes": [
		{
			"name": "hellfire_impact_caster_state_Scene",
			"nodes": [
				0
			]
		}
	],
	"buffers": [
		{
			"uri": "hellfire_impact_caster_state.bin",
			"byteLength": 588
		},
		{
			"uri": "hellfire_impact_caster_state_anim0-0.bin",
			"byteLength": 80
		},
		{
			"uri": "hellfire_impact_caster_state_anim158-0.bin",
			"byteLength": 16
		},
		{
			"uri": "hellfire_impact_caster_state_anim159-0.bin",
			"byteLength": 16
		}
	],
	"bufferViews": [
		{
			"buffer": 0,
			"byteLength": 96,
			"byteOffset": 0,
			"target": 34962
		},
		{
			"buffer": 0,
			"byteLength": 96,
			"byteOffset": 96,
			"target": 34962
		},
		{
			"buffer": 0,
			"byteLength": 32,
			"byteOffset": 192,
			"target": 34962
		},
		{
			"buffer": 0,
			"byteLength": 32,
			"byteOffset": 224,
			"target": 34962
		},
		{
			"buffer": 0,
			"byteLength": 192,
			"byteOffset": 256
		},
		{
			"buffer": 1,
			"byteLength": 20,
			"byteOffset": 0,
			"name": "SCALE_TIMESTAMPS_0_0"
		},
		{
			"buffer": 1,
			"byteLength": 60,
			"byteOffset": 20,
			"name": "SCALE_VALUES_0_0"
		},
		{
			"buffer": 2,
			"byteLength": 4,
			"byteOffset": 0,
			"name": "SCALE_TIMESTAMPS_0_1"
		},
		{
			"buffer": 2,
			"byteLength": 12,
			"byteOffset": 4,
			"name": "SCALE_VALUES_0_1"
		},
		{
			"buffer": 3,
			"byteLength": 4,
			"byteOffset": 0,
			"name": "SCALE_TIMESTAMPS_0_2"
		},
		{
			"buffer": 3,
			"byteLength": 12,
			"byteOffset": 4,
			"name": "SCALE_VALUES_0_2"
		},
		{
			"buffer": 0,
			"byteLength": 64,
			"byteOffset": 448,
			"target": 34962
		},
		{
			"buffer": 0,
			"byteLength": 64,
			"byteOffset": 512,
			"target": 34962
		},
		{
			"buffer": 0,
			"byteLength": 6,
			"byteOffset": 576,
			"target": 34963
		},
		{
			"buffer": 0,
			"byteLength": 6,
			"byteOffset": 582,
			"target": 34963
		}
	],
	"accessors": [
		{
			"name": "POSITION",
			"bufferView": 0,
			"byteOffset": 0,
			"componentType": 5126,
			"count": 8,
			"type": "VEC3",
			"min": [
				-7.295958042144775,
				0.01923004724085331,
				-7.29771614074707
			],
			"max": [
				7.285667419433594,
				0.01923004724085331,
				7.283909320831299
			]
		},
		{
			"name": "NORMAL",
			"bufferView": 1,
			"byteOffset": 0,
			"componentType": 5126,
			"count": 8,
			"type": "VEC3",
			"min": [
				0,
				1,
				0
			],
			"max": [
				0,
				1,
				0
			]
		},
		{
			"name": "JOINTS_0",
			"byteOffset": 0,
			"componentType": 5121,
			"count": 8,
			"type": "VEC4",
			"bufferView": 2,
			"min": [
				0,
				0,
				0,
				0
			],
			"max": [
				1,
				0,
				0,
				0
			]
		},
		{
			"name": "WEIGHTS_0",
			"byteOffset": 0,
			"componentType": 5121,
			"count": 8,
			"normalized": true,
			"type": "VEC4",
			"bufferView": 3,
			"min": [
				255,
				0,
				0,
				0
			],
			"max": [
				255,
				0,
				0,
				0
			]
		},
		{
			"name": "INV_BIND_MATRICES",
			"byteOffset": 0,
			"componentType": 5126,
			"count": 3,
			"type": "MAT4",
			"bufferView": 4,
			"min": [
				1,
				0,
				0,
				0,
				0,
				1,
				0,
				0,
				0,
				0,
				1,
				0,
				0.005144966300576925,
				-0.3893483579158783,
				0.006903370376676321,
				1
			],
			"max": [
				1,
				0,
				0,
				0,
				0,
				1,
				0,
				0,
				0,
				0,
				1,
				0,
				0.057436127215623856,
				-0.01923004724085331,
				0.10817527770996094,
				1
			]
		},
		{
			"name": "SCALE_TIMESTAMPS_0_0",
			"bufferView": 5,
			"byteOffset": 0,
			"type": "SCALAR",
			"componentType": 5126,
			"min": [
				0
			],
			"max": [
				1
			],
			"count": 5
		},
		{
			"name": "SCALE_VALUES_0_0",
			"bufferView": 6,
			"byteOffset": 0,
			"type": "VEC3",
			"componentType": 5126,
			"min": [
				1,
				1,
				1
			],
			"max": [
				7.320465564727783,
				7.320465564727783,
				7.320465564727783
			],
			"count": 5
		},
		{
			"name": "SCALE_TIMESTAMPS_0_1",
			"bufferView": 7,
			"byteOffset": 0,
			"type": "SCALAR",
			"componentType": 5126,
			"min": [
				0
			],
			"max": [
				0
			],
			"count": 1
		},
		{
			"name": "SCALE_VALUES_0_1",
			"bufferView": 8,
			"byteOffset": 0,
			"type": "VEC3",
			"componentType": 5126,
			"min": [
				1.879193663597107,
				1.879193663597107,
				1.879193663597107
			],
			"max": [
				1.879193663597107,
				1.879193663597107,
				1.879193663597107
			],
			"count": 1
		},
		{
			"name": "SCALE_TIMESTAMPS_0_2",
			"bufferView": 9,
			"byteOffset": 0,
			"type": "SCALAR",
			"componentType": 5126,
			"min": [
				0
			],
			"max": [
				0
			],
			"count": 1
		},
		{
			"name": "SCALE_VALUES_0_2",
			"bufferView": 10,
			"byteOffset": 0,
			"type": "VEC3",
			"componentType": 5126,
			"min": [
				4.207164287567139,
				4.207164287567139,
				4.207164287567139
			],
			"max": [
				4.207164287567139,
				4.207164287567139,
				4.207164287567139
			],
			"count": 1
		},
		{
			"name": "TEXCOORD_0",
			"bufferView": 11,
			"byteOffset": 0,
			"componentType": 5126,
			"count": 8,
			"type": "VEC2",
			"min": [
				0,
				0
			],
			"max": [
				1,
				1
			]
		},
		{
			"name": "TEXCOORD_1",
			"bufferView": 12,
			"byteOffset": 0,
			"componentType": 5126,
			"count": 8,
			"type": "VEC2",
			"min": [
				0,
				0
			],
			"max": [
				0,
				0
			]
		},
		{
			"bufferView": 13,
			"byteOffset": 0,
			"componentType": 5121,
			"count": 6,
			"type": "SCALAR"
		},
		{
			"bufferView": 14,
			"byteOffset": 0,
			"componentType": 5121,
			"count": 6,
			"type": "SCALAR"
		}
	],
	"meshes": [
		{
			"primitives": [
				{
					"attributes": {
						"POSITION": 0,
						"NORMAL": 1,
						"JOINTS_0": 2,
						"WEIGHTS_0": 3,
						"TEXCOORD_0": 11,
						"TEXCOORD_1": 12
					},
					"indices": 13,
					"mode": 4,
					"material": 0
				}
			]
		},
		{
			"primitives": [
				{
					"attributes": {
						"POSITION": 0,
						"NORMAL": 1,
						"JOINTS_0": 2,
						"WEIGHTS_0": 3,
						"TEXCOORD_0": 11,
						"TEXCOORD_1": 12
					},
					"indices": 14,
					"mode": 4,
					"material": 1
				}
			]
		}
	],
	"scene": 0,
	"skins": [
		{
			"name": "hellfire_impact_caster_state_Armature",
			"joints": [
				3,
				5,
				7
			],
			"inverseBindMatrices": 4,
			"skeleton": 0
		}
	],
	"animations": [
		{
			"samplers": [
				{
					"input": 5,
					"interpolation": "LINEAR",
					"output": 6
				}
			],
			"channels": [
				{
					"sampler": 0,
					"target": {
						"node": 3,
						"path": "scale"
					}
				}
			],
			"name": "Stand (ID 0 variation 0)"
		},
		{
			"samplers": [
				{
					"input": 7,
					"interpolation": "LINEAR",
					"output": 8
				}
			],
			"channels": [
				{
					"sampler": 0,
					"target": {
						"node": 3,
						"path": "scale"
					}
				}
			],
			"name": "Hold (ID 158 variation 0)"
		},
		{
			"samplers": [
				{
					"input": 9,
					"interpolation": "LINEAR",
					"output": 10
				}
			],
			"channels": [
				{
					"sampler": 0,
					"target": {
						"node": 3,
						"path": "scale"
					}
				}
			],
			"name": "Decay (ID 159 variation 0)"
		}
	],
	"images": [
		{
			"uri": "..\\creature\\golemharvest\\red_glow3.png"
		},
		{
			"uri": "lavaground.png"
		},
		{
			"uri": "dust1_a.png"
		}
	],
	"textures": [
		{
			"source": 0
		},
		{
			"source": 1
		},
		{
			"source": 2
		}
	],
	"materials": [
		{
			"name": "red_glow3",
			"emissiveFactor": [
				0,
				0,
				0
			],
			"pbrMetallicRoughness": {
				"baseColorTexture": {
					"index": 0
				},
				"metallicFactor": 0
			}
		},
		{
			"name": "lavaground",
			"emissiveFactor": [
				0,
				0,
				0
			],
			"pbrMetallicRoughness": {
				"baseColorTexture": {
					"index": 1
				},
				"metallicFactor": 0
			}
		},
		{
			"name": "dust1_a",
			"emissiveFactor": [
				0,
				0,
				0
			],
			"pbrMetallicRoughness": {
				"baseColorTexture": {
					"index": 2
				},
				"metallicFactor": 0
			}
		}
	]
}