{
	"asset": {
		"version": "2.0",
		"generator": "wow.export v0.1.65 win-x64 [d1c6caee-c9d0-469b-8ef3-69abea558672]"
	},
	"nodes": [
		{
			"name": "holyzone",
			"children": [
				1,
				10
			]
		},
		{
			"name": "holyzone",
			"children": [
				2,
				4,
				6,
				8
			]
		},
		{
			"name": "bone_0_p",
			"translation": [
				0,
				0.02777777798473835,
				0
			],
			"children": [
				3
			]
		},
		{
			"name": "bone_0"
		},
		{
			"name": "bone_1_p",
			"translation": [
				0,
				0.5555555820465088,
				0
			],
			"children": [
				5
			]
		},
		{
			"name": "bone_1"
		},
		{
			"name": "bone_2_p",
			"translation": [
				0,
				0.5555555820465088,
				0
			],
			"children": [
				7
			]
		},
		{
			"name": "bone_2"
		},
		{
			"name": "bone_3_p",
			"translation": [
				0,
				1.388888955116272,
				0
			],
			"children": [
				9
			]
		},
		{
			"name": "bone_3"
		},
		{
			"name": "holyzone_Geoset0",
			"mesh": 0,
			"skin": 0
		}
	],
	"scenes": [
		{
			"name": "holyzone_Scene",
			"nodes": [
				0
			]
		}
	],
	"buffers": [
		{
			"uri": "holyzone.bin",
			"byteLength": 454
		}
	],
	"bufferViews": [
		{
			"buffer": 0,
			"byteLength": 48,
			"byteOffset": 0,
			"target": 34962
		},
		{
			"buffer": 0,
			"byteLength": 48,
			"byteOffset": 48,
			"target": 34962
		},
		{
			"buffer": 0,
			"byteLength": 16,
			"byteOffset": 96,
			"target": 34962
		},
		{
			"buffer": 0,
			"byteLength": 16,
			"byteOffset": 112,
			"target": 34962
		},
		{
			"buffer": 0,
			"byteLength": 256,
			"byteOffset": 128
		},
		{
			"buffer": 0,
			"byteLength": 32,
			"byteOffset": 384,
			"target": 34962
		},
		{
			"buffer": 0,
			"byteLength": 32,
			"byteOffset": 416,
			"target": 34962
		},
		{
			"buffer": 0,
			"byteLength": 6,
			"byteOffset": 448,
			"target": 34963
		}
	],
	"accessors": [
		{
			"name": "POSITION",
			"bufferView": 0,
			"byteOffset": 0,
			"componentType": 5126,
			"count": 4,
			"type": "VEC3",
			"min": [
				-4.084606647491455,
				0.02777777798473835,
				-4.0846052169799805
			],
			"max": [
				4.084606647491455,
				0.02777777798473835,
				4.0846052169799805
			]
		},
		{
			"name": "NORMAL",
			"bufferView": 1,
			"byteOffset": 0,
			"componentType": 5126,
			"count": 4,
			"type": "VEC3",
			"min": [
				0,
				1,
				0
			],
			"max": [
				0,
				1,
				0
			]
		},
		{
			"name": "JOINTS_0",
			"byteOffset": 0,
			"componentType": 5121,
			"count": 4,
			"type": "VEC4",
			"bufferView": 2,
			"min": [
				0,
				0,
				0,
				0
			],
			"max": [
				0,
				0,
				0,
				0
			]
		},
		{
			"name": "WEIGHTS_0",
			"byteOffset": 0,
			"componentType": 5121,
			"count": 4,
			"normalized": true,
			"type": "VEC4",
			"bufferView": 3,
			"min": [
				255,
				0,
				0,
				0
			],
			"max": [
				255,
				0,
				0,
				0
			]
		},
		{
			"name": "INV_BIND_MATRICES",
			"byteOffset": 0,
			"componentType": 5126,
			"count": 4,
			"type": "MAT4",
			"bufferView": 4,
			"min": [
				1,
				0,
				0,
				0,
				0,
				1,
				0,
				0,
				0,
				0,
				1,
				0,
				0,
				-1.388888955116272,
				0,
				1
			],
			"max": [
				1,
				0,
				0,
				0,
				0,
				1,
				0,
				0,
				0,
				0,
				1,
				0,
				0,
				-0.02777777798473835,
				0,
				1
			]
		},
		{
			"name": "TEXCOORD_0",
			"bufferView": 5,
			"byteOffset": 0,
			"componentType": 5126,
			"count": 4,
			"type": "VEC2",
			"min": [
				0,
				0
			],
			"max": [
				1,
				1
			]
		},
		{
			"name": "TEXCOORD_1",
			"bufferView": 6,
			"byteOffset": 0,
			"componentType": 5126,
			"count": 4,
			"type": "VEC2",
			"min": [
				0,
				0
			],
			"max": [
				0,
				0
			]
		},
		{
			"bufferView": 7,
			"byteOffset": 0,
			"componentType": 5121,
			"count": 6,
			"type": "SCALAR"
		}
	],
	"meshes": [
		{
			"primitives": [
				{
					"attributes": {
						"POSITION": 0,
						"NORMAL": 1,
						"JOINTS_0": 2,
						"WEIGHTS_0": 3,
						"TEXCOORD_0": 5,
						"TEXCOORD_1": 6
					},
					"indices": 7,
					"mode": 4,
					"material": 2
				}
			]
		}
	],
	"scene": 0,
	"skins": [
		{
			"name": "holyzone_Armature",
			"joints": [
				3,
				5,
				7,
				9
			],
			"inverseBindMatrices": 4,
			"skeleton": 0
		}
	],
	"animations": [
		{
			"samplers": [],
			"channels": [],
			"name": "Stand (ID 0 variation 0)"
		},
		{
			"samplers": [],
			"channels": [],
			"name": "Hold (ID 158 variation 0)"
		},
		{
			"samplers": [],
			"channels": [],
			"name": "Decay (ID 159 variation 0)"
		}
	],
	"images": [
		{
			"uri": "t_vfx_flare01b.png"
		},
		{
			"uri": "t_vfx_flare05_a.png"
		},
		{
			"uri": "t_vfx_ring_aurab.png"
		},
		{
			"uri": "star4.png"
		}
	],
	"textures": [
		{
			"source": 0
		},
		{
			"source": 1
		},
		{
			"source": 2
		},
		{
			"source": 3
		}
	],
	"materials": [
		{
			"name": "t_vfx_flare01b",
			"emissiveFactor": [
				0,
				0,
				0
			],
			"pbrMetallicRoughness": {
				"baseColorTexture": {
					"index": 0
				},
				"metallicFactor": 0
			}
		},
		{
			"name": "t_vfx_flare05_a",
			"emissiveFactor": [
				0,
				0,
				0
			],
			"pbrMetallicRoughness": {
				"baseColorTexture": {
					"index": 1
				},
				"metallicFactor": 0
			}
		},
		{
			"name": "t_vfx_ring_aurab",
			"emissiveFactor": [
				0,
				0,
				0
			],
			"pbrMetallicRoughness": {
				"baseColorTexture": {
					"index": 2
				},
				"metallicFactor": 0
			}
		},
		{
			"name": "star4",
			"emissiveFactor": [
				0,
				0,
				0
			],
			"pbrMetallicRoughness": {
				"baseColorTexture": {
					"index": 3
				},
				"metallicFactor": 0
			}
		}
	]
}